<svg width="102" height="97" viewBox="0 0 102 97" fill="none" xmlns="http://www.w3.org/2000/svg">
<path d="M71.4307 49.972C81.8615 49.972 90.3174 41.4332 90.3174 30.9001C90.3174 20.367 81.8615 11.8282 71.4307 11.8282C60.9998 11.8282 52.5439 20.367 52.5439 30.9001C52.5439 41.4332 60.9998 49.972 71.4307 49.972Z" fill="#0336DB"/>
<path d="M71.4307 60.8353C87.7768 60.8353 101.075 47.4065 101.075 30.9003C101.075 14.3939 87.7768 0.965118 71.4307 0.965118C55.0846 0.965118 41.7861 14.3939 41.7861 30.9003C41.7861 47.4065 55.0846 60.8353 71.4307 60.8353ZM71.4307 4.98856C85.5796 4.98856 97.0909 16.6125 97.0909 30.9003C97.0909 45.1879 85.5798 56.8118 71.4307 56.8118C57.2818 56.8118 45.7705 45.1879 45.7705 30.9003C45.7705 16.6125 57.2816 4.98856 71.4307 4.98856Z" fill="black"/>
<path d="M68.085 35.9238C67.3947 35.0586 66.1408 34.9224 65.2837 35.6193C64.4269 36.3163 64.292 37.5827 64.9821 38.4479C66.0804 39.8246 67.6548 40.6067 69.2231 40.9815C69.3066 42.0149 70.1636 42.8272 71.2085 42.8272C72.204 42.8272 73.029 42.09 73.177 41.1265C75.9828 40.6208 77.9517 38.7344 78.2746 36.1662C78.6499 33.1831 76.7336 30.3222 73.6147 29.2089C73.4726 29.1582 73.3348 29.1087 73.2007 29.0602V25.1845C73.3666 25.2913 73.4904 25.408 73.5689 25.5206C74.2004 26.4301 75.4429 26.6504 76.344 26.0119C77.2446 25.3738 77.4624 24.1191 76.8303 23.2096C76.1057 22.1665 74.8403 21.2815 73.1995 20.917C73.164 19.8373 72.2863 18.9731 71.2085 18.9731C70.1082 18.9731 69.2163 19.8737 69.2163 20.9848V21.0522C69.094 21.0846 68.9709 21.1194 68.847 21.1572C66.7556 21.7935 65.1774 23.8388 65.009 26.1314C64.8417 28.4097 66.0358 30.3858 68.2031 31.4178C68.4394 31.5304 68.7846 31.6777 69.2161 31.8513V36.7555C68.7593 36.5479 68.3625 36.2717 68.085 35.9238ZM74.3219 35.6593C74.2478 36.2485 73.8527 36.6985 73.2007 36.9653V33.4707C74.0759 34.0916 74.4086 34.9713 74.3219 35.6593ZM68.9828 26.4289C69.0018 26.1694 69.087 25.9123 69.2165 25.6878V27.261C69.0362 27.025 68.9591 26.749 68.9828 26.4289Z" fill="white"/>
<path d="M101.992 69.3911C101.887 66.9491 100.766 64.8492 98.8342 63.4786C95.6513 61.2197 91.3553 61.612 88.6187 64.4111C88.531 64.5008 88.4517 64.5986 88.3822 64.7034L84.0117 71.2787C82.7881 68.3623 79.9453 66.3136 76.6424 66.3136L45.1993 66.2922H45.198C44.721 66.2922 44.2602 66.4648 43.8988 66.7789L36.0217 73.6221H30.2733V71.854C30.2733 70.743 29.3812 69.8423 28.2811 69.8423H19.5095V69.5671C19.5095 68.456 18.6174 67.5554 17.5173 67.5554H1.99219C0.891902 67.5554 0 68.456 0 69.5671V93.1601C0 94.2712 0.891902 95.1719 1.99219 95.1719H17.5173C18.6174 95.1719 19.5095 94.2712 19.5095 93.1601V92.8849H28.2809C29.381 92.8849 30.2731 91.9843 30.2731 90.8732V89.0156H36.8786L42.846 95.4034C43.2227 95.8066 43.747 96.0347 44.2951 96.0347C44.3045 96.0347 44.3138 96.0347 44.3232 96.0345L85.4646 95.4517C86.1065 95.4426 86.7048 95.1218 87.0715 94.5899L100.143 75.6347C100.152 75.6228 100.16 75.6107 100.168 75.5988C101.433 73.6766 102.081 71.472 101.992 69.3911ZM15.5251 91.1484H3.98438V71.5788H15.5251V91.1484ZM26.2887 88.8617H19.5095V73.8657H26.2887V88.8617ZM96.8612 73.3538L84.3863 91.4433L45.1434 91.9992L39.1875 85.6236C38.811 85.2207 38.2869 84.9924 37.7384 84.9924H30.2733V77.6456H36.7608C37.2378 77.6456 37.6986 77.473 38.0599 77.1589L45.9365 70.3163L76.6411 70.3372C78.8617 70.3372 80.6685 72.1952 80.6685 74.4791C80.6685 76.7628 78.8619 78.6206 76.6411 78.6206C76.6359 78.6206 76.6307 78.6208 76.6255 78.6208H59.4449C58.8982 78.6208 58.3755 78.8478 57.9992 79.2485L53.808 83.7125C53.051 84.5188 53.0846 85.792 53.8831 86.5565C54.2684 86.9252 54.7612 87.1083 55.2533 87.1083C55.7811 87.1083 56.3078 86.8979 56.6995 86.4806L60.3013 82.6443L80.1927 82.6451H80.1933C80.8571 82.6451 81.4775 82.3111 81.8474 81.7545L91.5757 67.119C92.9429 65.8324 95.0052 65.6787 96.5432 66.7706C98.6193 68.2438 98.275 71.1936 96.8612 73.3538Z" fill="black"/>
</svg>
